<?xml version="1.0" encoding="UTF-8"?>
<!DOCTYPE svg PUBLIC "-//W3C//DTD SVG 1.1//EN" "http://www.w3.org/Graphics/SVG/1.1/DTD/svg11.dtd">
<svg xmlns="http://www.w3.org/2000/svg" version="1.1" width="558px" height="217px" style="shape-rendering:geometricPrecision; text-rendering:geometricPrecision; image-rendering:optimizeQuality; fill-rule:evenodd; clip-rule:evenodd" xmlns:xlink="http://www.w3.org/1999/xlink">
<g><path style="opacity:0.966" fill="#d9aa44" d="M 78.5,26.5 C 90.5,26.5 102.5,26.5 114.5,26.5C 114.5,29.1667 114.5,31.8333 114.5,34.5C 110.167,34.5 105.833,34.5 101.5,34.5C 101.5,46.8333 101.5,59.1667 101.5,71.5C 98.1667,71.5 94.8333,71.5 91.5,71.5C 91.5,59.1667 91.5,46.8333 91.5,34.5C 87.1667,34.5 82.8333,34.5 78.5,34.5C 78.5,31.8333 78.5,29.1667 78.5,26.5 Z"/></g>
<g><path style="opacity:0.944" fill="#daab44" d="M 153.5,26.5 C 163.172,26.3335 172.839,26.5002 182.5,27C 185.913,28.0774 188.413,30.2441 190,33.5C 192.765,42.8054 189.598,48.972 180.5,52C 183.219,53.5967 185.386,55.7634 187,58.5C 189.374,62.7495 191.874,66.9162 194.5,71C 190.5,71.6667 186.5,71.6667 182.5,71C 178.629,66.0928 175.129,60.9261 172,55.5C 169.467,54.1276 166.8,53.1276 164,52.5C 163.5,58.8246 163.334,65.1579 163.5,71.5C 160.167,71.5 156.833,71.5 153.5,71.5C 153.5,56.5 153.5,41.5 153.5,26.5 Z M 163.5,34.5 C 168.519,34.7522 173.519,35.2522 178.5,36C 181.167,38.3333 181.167,40.6667 178.5,43C 173.536,43.9122 168.536,44.4122 163.5,44.5C 163.5,41.1667 163.5,37.8333 163.5,34.5 Z"/></g>
<g><path style="opacity:1" fill="#d9ab44" d="M 232.5,26.5 C 235.833,26.5 239.167,26.5 242.5,26.5C 242.5,41.5 242.5,56.5 242.5,71.5C 239.167,71.5 235.833,71.5 232.5,71.5C 232.5,56.5 232.5,41.5 232.5,26.5 Z"/></g>
<g><path style="opacity:0.958" fill="#daab43" d="M 279.5,26.5 C 283.106,26.2108 286.606,26.5442 290,27.5C 293.531,37.0918 296.864,46.7585 300,56.5C 303.785,46.9812 307.285,37.3145 310.5,27.5C 314.122,26.3414 317.789,26.1747 321.5,27C 316.167,41.6667 310.833,56.3333 305.5,71C 301.789,71.8253 298.122,71.6586 294.5,70.5C 289.094,55.9472 284.094,41.2805 279.5,26.5 Z"/></g>
<g><path style="opacity:1" fill="#d9ab44" d="M 358.5,26.5 C 361.833,26.5 365.167,26.5 368.5,26.5C 368.5,41.5 368.5,56.5 368.5,71.5C 365.167,71.5 361.833,71.5 358.5,71.5C 358.5,56.5 358.5,41.5 358.5,26.5 Z"/></g>
<g><path style="opacity:0.975" fill="#daaa44" d="M 419.5,26.5 C 423.5,26.5 427.5,26.5 431.5,26.5C 436.592,41.357 442.259,56.0237 448.5,70.5C 444.833,71.8333 441.167,71.8333 437.5,70.5C 436.26,67.6066 434.926,64.7733 433.5,62C 428.167,61.3333 422.833,61.3333 417.5,62C 416.167,65 414.833,68 413.5,71C 410.183,71.4983 406.85,71.665 403.5,71.5C 408.833,56.5 414.167,41.5 419.5,26.5 Z M 424.5,40.5 C 425.497,40.4701 426.164,40.9701 426.5,42C 427.932,45.461 429.265,48.961 430.5,52.5C 427.232,53.487 423.898,53.8204 420.5,53.5C 421.829,49.1782 423.163,44.8449 424.5,40.5 Z"/></g>
<g><path style="opacity:0.979" fill="#daab44" d="M 47.5,91.5 C 58.4272,90.6457 69.0938,91.8124 79.5,95C 93.1228,102.071 100.956,113.237 103,128.5C 105.957,145.053 102.79,160.219 93.5,174C 97.6475,177.579 102.314,180.412 107.5,182.5C 105.294,187.079 102.961,191.579 100.5,196C 99.1667,196.667 97.8333,196.667 96.5,196C 90.3468,192.662 84.3468,189.162 78.5,185.5C 29.9695,194.807 8.46951,174.807 14,125.5C 18.0229,106.978 29.1896,95.6446 47.5,91.5 Z M 51.5,108.5 C 73.4258,107.257 84.0925,117.757 83.5,140C 83.8649,148.704 81.5316,156.538 76.5,163.5C 71.4404,160.304 66.107,157.637 60.5,155.5C 59.5581,155.608 58.7247,155.941 58,156.5C 55.9281,159.971 54.4281,163.638 53.5,167.5C 57.0615,167.965 60.3949,169.132 63.5,171C 47.4079,173.249 37.5745,166.415 34,150.5C 33.3333,143.5 33.3333,136.5 34,129.5C 36.0791,119.263 41.9124,112.263 51.5,108.5 Z"/></g>
<g><path style="opacity:0.98" fill="#d9aa44" d="M 189.5,93.5 C 196.167,93.5 202.833,93.5 209.5,93.5C 209.333,115.836 209.5,138.169 210,160.5C 213.108,168.432 218.941,172.098 227.5,171.5C 236.073,172.425 241.573,168.758 244,160.5C 244.5,138.169 244.667,115.836 244.5,93.5C 251.167,93.5 257.833,93.5 264.5,93.5C 264.667,115.169 264.5,136.836 264,158.5C 261.646,180.502 249.312,190.502 227,188.5C 205.448,190.257 193.115,180.59 190,159.5C 189.5,137.503 189.333,115.503 189.5,93.5 Z"/></g>
<g><path style="opacity:0.983" fill="#daab43" d="M 354.5,93.5 C 361.167,93.5 367.833,93.5 374.5,93.5C 374.5,124.5 374.5,155.5 374.5,186.5C 367.833,186.5 361.167,186.5 354.5,186.5C 354.5,155.5 354.5,124.5 354.5,93.5 Z"/></g>
<g><path style="opacity:0.992" fill="#daaa44" d="M 460.5,93.5 C 483.833,93.5 507.167,93.5 530.5,93.5C 530.91,99.6208 530.41,105.621 529,111.5C 512.619,131.093 496.119,150.593 479.5,170C 496.83,170.5 514.163,170.667 531.5,170.5C 531.5,175.833 531.5,181.167 531.5,186.5C 506.167,186.5 480.833,186.5 455.5,186.5C 455.334,180.491 455.501,174.491 456,168.5C 471.714,148.908 487.547,129.408 503.5,110C 489.171,109.5 474.837,109.333 460.5,109.5C 460.5,104.167 460.5,98.8333 460.5,93.5 Z"/></g>
</svg>
