<?xml version="1.0" encoding="UTF-8"?>
<!DOCTYPE svg PUBLIC "-//W3C//DTD SVG 1.1//EN" "http://www.w3.org/Graphics/SVG/1.1/DTD/svg11.dtd">
<svg xmlns="http://www.w3.org/2000/svg" version="1.1" width="85px" height="24px" style="shape-rendering:geometricPrecision; text-rendering:geometricPrecision; image-rendering:optimizeQuality; fill-rule:evenodd; clip-rule:evenodd" xmlns:xlink="http://www.w3.org/1999/xlink">
<g><path style="opacity:0.872" fill="#fde155" d="M 1.5,3.5 C 2.5,3.5 3.5,3.5 4.5,3.5C 4.5,8.16667 4.5,12.8333 4.5,17.5C 3.5,17.5 2.5,17.5 1.5,17.5C 1.5,12.8333 1.5,8.16667 1.5,3.5 Z"/></g>
<g><path style="opacity:0.743" fill="#fde254" d="M 35.5,3.5 C 36.8333,3.5 38.1667,3.5 39.5,3.5C 39.5,8.16667 39.5,12.8333 39.5,17.5C 30.1499,19.6554 26.9832,16.322 30,7.5C 31.6995,6.59391 33.5328,6.26057 35.5,6.5C 35.5,5.5 35.5,4.5 35.5,3.5 Z M 32.5,9.5 C 33.5,9.5 34.5,9.5 35.5,9.5C 35.5,11.1667 35.5,12.8333 35.5,14.5C 34.5,14.5 33.5,14.5 32.5,14.5C 32.5,12.8333 32.5,11.1667 32.5,9.5 Z"/></g>
<g><path style="opacity:0.872" fill="#fde155" d="M 41.5,3.5 C 42.675,3.28099 43.675,3.61432 44.5,4.5C 42.9483,5.79789 41.9483,5.46455 41.5,3.5 Z"/></g>
<g><path style="opacity:0.787" fill="#fde355" d="M 7.5,6.5 C 16.4867,5.66502 18.8201,9.16502 14.5,17C 5.88891,17.971 3.55558,14.471 7.5,6.5 Z M 10.5,9.5 C 13.9563,10.5362 14.2896,12.2029 11.5,14.5C 9.29572,13.218 8.96238,11.5514 10.5,9.5 Z"/></g>
<g><path style="opacity:0.76" fill="#fde155" d="M 19.5,6.5 C 22.1194,6.23166 24.6194,6.565 27,7.5C 27.4983,10.8168 27.665,14.1501 27.5,17.5C 24.4281,17.8174 21.4281,17.4841 18.5,16.5C 17.04,13.7116 17.7067,11.5449 20.5,10C 18.273,9.29602 17.9397,8.12936 19.5,6.5 Z M 21.5,12.5 C 23.337,12.6395 23.6704,13.3061 22.5,14.5C 21.7025,14.0431 21.3691,13.3764 21.5,12.5 Z"/></g>
<g><path style="opacity:0.872" fill="#fde155" d="M 41.5,6.5 C 42.5,6.5 43.5,6.5 44.5,6.5C 44.5,10.1667 44.5,13.8333 44.5,17.5C 43.5,17.5 42.5,17.5 41.5,17.5C 41.5,13.8333 41.5,10.1667 41.5,6.5 Z"/></g>
<g><path style="opacity:0.752" fill="#fce255" d="M 46.5,6.5 C 49.5719,6.18259 52.5719,6.51592 55.5,7.5C 56.4173,10.7577 56.7507,14.091 56.5,17.5C 55.1667,17.5 53.8333,17.5 52.5,17.5C 52.8134,14.7531 52.48,12.0865 51.5,9.5C 49.7711,11.8511 49.1044,14.5178 49.5,17.5C 48.5,17.5 47.5,17.5 46.5,17.5C 46.5,13.8333 46.5,10.1667 46.5,6.5 Z"/></g>
<g><path style="opacity:0.787" fill="#fde254" d="M 59.5,6.5 C 62.5,6.5 65.5,6.5 68.5,6.5C 68.7768,11.2332 68.4435,15.8999 67.5,20.5C 64.5719,21.4841 61.5719,21.8174 58.5,21.5C 58.5,20.5 58.5,19.5 58.5,18.5C 65.5306,18.4812 65.864,17.9812 59.5,17C 56.8987,13.5036 56.8987,10.0036 59.5,6.5 Z M 61.5,9.5 C 62.5,9.5 63.5,9.5 64.5,9.5C 64.5,11.1667 64.5,12.8333 64.5,14.5C 63.5,14.5 62.5,14.5 61.5,14.5C 61.5,12.8333 61.5,11.1667 61.5,9.5 Z"/></g>
<g><path style="opacity:0.872" fill="#fde155" d="M 70.5,14.5 C 71.5,14.5 72.5,14.5 73.5,14.5C 73.5,15.5 73.5,16.5 73.5,17.5C 72.5,17.5 71.5,17.5 70.5,17.5C 70.5,16.5 70.5,15.5 70.5,14.5 Z"/></g>
<g><path style="opacity:0.872" fill="#fde155" d="M 75.5,14.5 C 76.5,14.5 77.5,14.5 78.5,14.5C 78.5,15.5 78.5,16.5 78.5,17.5C 77.5,17.5 76.5,17.5 75.5,17.5C 75.5,16.5 75.5,15.5 75.5,14.5 Z"/></g>
<g><path style="opacity:0.872" fill="#fde155" d="M 80.5,14.5 C 81.5,14.5 82.5,14.5 83.5,14.5C 83.5,15.5 83.5,16.5 83.5,17.5C 82.5,17.5 81.5,17.5 80.5,17.5C 80.5,16.5 80.5,15.5 80.5,14.5 Z"/></g>
</svg>
